<svg width="30" height="28" viewBox="0 0 30 28" fill="none" xmlns="http://www.w3.org/2000/svg">
<path fill-rule="evenodd" clip-rule="evenodd" d="M25.925 7.898L27.5 17.5C28.1375 21.7023 25 25.5246 20.75 25.5592H9.17496C4.99996 25.5592 1.82496 21.7023 2.49996 17.5L4.07496 7.898C4.44886 4.7231 7.2858 2.27649 10.75 2.14142H19.25C22.7141 2.27649 25.5511 4.7231 25.925 7.898ZM20.7875 23.7977C22.1296 23.7798 23.3956 23.22 24.25 22.2664C25.3958 21.0165 25.8933 19.3686 25.6125 17.7533L24.075 8.15129C23.8554 5.80754 21.7999 3.96824 19.25 3.83385H10.75C8.20003 3.96824 6.1445 5.80754 5.92496 8.15129L4.38746 17.7533C4.10659 19.3686 4.60408 21.0165 5.74996 22.2664C6.60435 23.22 7.87029 23.7798 9.21246 23.7977H20.7875Z" fill="white"/>
<path d="M18.9375 8.12826C18.4197 8.12826 18 8.51486 18 8.99175C18 10.5178 16.6568 11.7549 15 11.7549C13.3431 11.7549 12 10.5178 12 8.99175C12 8.51486 11.5802 8.12826 11.0625 8.12826C10.5447 8.12826 10.125 8.51486 10.125 8.99175C10.125 10.5959 11.0541 12.0782 12.5625 12.8803C14.0708 13.6824 15.9291 13.6824 17.4375 12.8803C18.9458 12.0782 19.875 10.5959 19.875 8.99175C19.8682 8.51745 19.4524 8.13446 18.9375 8.12826Z" fill="white"/>
</svg>
